<?xml version="1.0" standalone="no"?>
<!DOCTYPE svg PUBLIC "-//W3C//DTD SVG 20010904//EN"
 "http://www.w3.org/TR/2001/REC-SVG-20010904/DTD/svg10.dtd">
<svg version="1.0" xmlns="http://www.w3.org/2000/svg"
 width="500.000000pt" height="500.000000pt" viewBox="0 0 500.000000 500.000000"
 preserveAspectRatio="xMidYMid meet">
<metadata>
Created by potrace 1.11, written by Peter Selinger 2001-2013
</metadata>
<g transform="translate(0.000000,500.000000) scale(0.100000,-0.100000)"
fill="#000000" stroke="none">
<path d="M0 3295 l0 -795 185 0 185 0 0 795 0 795 -185 0 -185 0 0 -795z"/>
<path d="M669 4083 c-1 -5 -2 -361 -3 -793 l-1 -785 -115 -3 -115 -3 2 -782
c1 -430 2 -788 2 -794 1 -10 104 -13 479 -13 l478 0 -2 143 c-1 78 -2 144 -3
147 0 3 -131 5 -291 5 -191 0 -290 3 -291 10 -1 5 -2 295 -3 644 0 415 2 635
9 637 6 2 152 5 325 7 321 5 354 8 465 50 253 95 409 270 483 542 24 87 22
316 -2 410 -34 131 -112 269 -197 352 -73 70 -97 88 -177 131 -174 91 -233
100 -679 101 -200 1 -363 -2 -364 -6z m741 -292 c141 -40 232 -127 285 -271
38 -103 45 -291 14 -400 -47 -169 -127 -262 -269 -310 -56 -19 -89 -23 -228
-24 -90 -1 -166 2 -168 6 -4 6 -8 908 -5 999 1 13 22 15 164 14 95 -1 180 -7
207 -14z"/>
<path d="M2289 4083 c-1 -5 -2 -361 -2 -793 l-2 -785 -77 -3 c-69 -3 -78 -5
-84 -25 -3 -12 -37 -101 -75 -197 -37 -96 -122 -317 -189 -490 -66 -173 -129
-335 -139 -360 -11 -25 -34 -83 -51 -130 -18 -47 -36 -94 -41 -105 -4 -11 -29
-74 -55 -140 -25 -66 -49 -126 -51 -132 -4 -10 31 -13 156 -13 227 0 222 -4
291 205 23 72 47 135 52 140 5 6 122 10 307 11 l298 1 48 -146 c38 -115 55
-153 81 -179 l32 -32 170 0 170 0 -49 128 c-27 70 -53 136 -58 147 -5 11 -14
36 -21 55 -7 19 -16 44 -21 55 -5 11 -18 45 -29 75 -11 30 -25 64 -30 75 -4
11 -86 220 -180 465 -94 245 -184 477 -199 515 l-28 70 399 3 398 2 0 143 0
142 -322 0 -323 0 -3 188 -2 187 22 1 c13 0 125 1 250 1 l226 0 1 137 2 137
-251 -1 -250 0 0 186 0 185 325 0 325 -1 0 143 0 142 -510 0 c-280 0 -510 -3
-511 -7z m147 -2253 c56 -168 101 -306 99 -309 -6 -5 -414 -5 -420 0 -3 3 43
149 102 324 59 175 109 312 111 304 3 -8 51 -151 108 -319z"/>
<path d="M3991 4053 c-7 -21 -16 -47 -22 -58 -5 -11 -126 -324 -269 -695 -144
-371 -271 -702 -284 -735 -21 -54 -27 -60 -55 -63 l-31 -3 0 -795 0 -795 393
4 c215 2 403 7 417 10 131 34 226 82 294 150 151 153 172 410 43 545 -48 50
-139 97 -214 111 -5 1 15 12 42 25 149 70 223 181 219 326 -6 230 -139 361
-411 406 -60 10 -88 12 -248 13 l-150 1 32 20 c40 24 45 34 94 182 22 68 44
129 49 138 13 23 598 23 610 0 4 -8 22 -58 39 -110 18 -52 36 -104 41 -115 5
-11 11 -29 15 -41 3 -11 17 -32 31 -45 25 -23 32 -24 200 -27 l174 -3 -18 48
c-10 26 -148 384 -307 796 l-289 747 -191 0 -191 0 -13 -37z m313 -622 c58
-173 106 -316 106 -318 0 -1 -97 -3 -216 -3 -202 0 -216 1 -209 18 4 9 29 82
55 162 27 80 70 206 96 280 44 130 52 154 53 174 1 5 3 7 5 5 2 -2 52 -145
110 -318z m-285 -1216 c33 -6 73 -27 100 -53 34 -32 47 -162 23 -222 -15 -38
-60 -78 -101 -91 -20 -6 -105 -13 -188 -16 l-153 -5 0 199 0 199 143 -2 c78
-2 157 -6 176 -9z m65 -650 c76 -26 107 -67 111 -150 4 -81 -11 -129 -55 -169
-54 -48 -92 -56 -277 -56 l-163 0 0 198 0 198 168 -2 c127 -2 179 -6 216 -19z"/>
</g>
</svg>
