<?xml version="1.0" encoding="UTF-8" standalone="no"?>
<svg
   xmlns:dc="http://purl.org/dc/elements/1.1/"
   xmlns:cc="http://creativecommons.org/ns#"
   xmlns:rdf="http://www.w3.org/1999/02/22-rdf-syntax-ns#"
   xmlns:svg="http://www.w3.org/2000/svg"
   xmlns="http://www.w3.org/2000/svg"
   xmlns:sodipodi="http://sodipodi.sourceforge.net/DTD/sodipodi-0.dtd"
   xmlns:inkscape="http://www.inkscape.org/namespaces/inkscape"
   inkscape:export-ydpi="141.89326"
   inkscape:export-xdpi="141.89326"
   inkscape:export-filename="TGKC.png"
   sodipodi:docname="TGKC.svg"
   inkscape:version="1.0 (4035a4fb49, 2020-05-01)"
   id="svg8"
   version="1.1"
   viewBox="0 0 179.46294 31.68438"
   height="31.68438mm"
   width="179.46294mm">
  <defs
     id="defs2">
    <rect
       id="rect919"
       height="24.670095"
       width="22.735186"
       y="67.963699"
       x="128.42963" />
  </defs>
  <sodipodi:namedview
     inkscape:window-maximized="1"
     inkscape:window-y="-11"
     inkscape:window-x="-11"
     inkscape:window-height="1744"
     inkscape:window-width="2736"
     fit-margin-bottom="0"
     fit-margin-right="0"
     fit-margin-left="0"
     fit-margin-top="0"
     inkscape:snap-bbox="true"
     showgrid="false"
     inkscape:document-rotation="0"
     inkscape:current-layer="layer1"
     inkscape:document-units="mm"
     inkscape:cy="-37.750334"
     inkscape:cx="250.06679"
     inkscape:zoom="1.0939358"
     inkscape:pageshadow="2"
     inkscape:pageopacity="0.0"
     borderopacity="1.0"
     bordercolor="#666666"
     pagecolor="#ffffff"
     id="base" />
  <metadata
     id="metadata5">
    <rdf:RDF>
      <cc:Work
         rdf:about="">
        <dc:format>image/svg+xml</dc:format>
        <dc:type
           rdf:resource="http://purl.org/dc/dcmitype/StillImage" />
        <dc:title></dc:title>
      </cc:Work>
    </rdf:RDF>
  </metadata>
  <g
     transform="translate(-37.589077,-148.93132)"
     id="layer1"
     inkscape:groupmode="layer"
     inkscape:label="Layer 1">
    <text
       style="font-size:10.5833px;line-height:1.25;font-family:'Comic Sans MS';-inkscape-font-specification:'Comic Sans MS';white-space:pre;shape-inside:url(#rect919);"
       id="text917"
       xml:space="preserve" />
    <g
       id="g1048">
      <path
         style="fill:#fec837;fill-opacity:1;stroke:none;stroke-width:0.228533;stop-color:#000000"
         d="m 37.649012,164.71299 v -15.78161 h 13.634054 13.634053 l 0.01614,5.06987 c 0.01333,4.19057 0.03052,5.0872 0.09912,5.16983 0.07708,0.0929 4.08174,0.1 56.248411,0.1 h 56.16544 v 3.86982 c 0,3.13492 -0.0149,3.86982 -0.0786,3.86982 -0.0432,0 -0.11043,0.0318 -0.14932,0.0707 -0.0389,0.0389 -0.26881,0.12043 -0.51094,0.1812 -1.06992,0.26854 -1.99773,0.97873 -2.47813,1.89689 -0.39625,0.75732 -0.54096,1.37489 -0.57686,2.46173 -0.0282,0.85502 -0.0423,0.95234 -0.13735,0.95234 -0.0583,0 -0.11908,-0.0504 -0.13518,-0.11192 -0.0199,-0.076 -0.10725,-0.12439 -0.27198,-0.15074 -0.17296,-0.0277 -0.25184,-0.0737 -0.27446,-0.16017 -0.0243,-0.0928 -0.0823,-0.12136 -0.2469,-0.12136 -0.15328,0 -0.23377,-0.0348 -0.27988,-0.12093 -0.0668,-0.12477 -0.42326,-0.17768 -0.42326,-0.0628 0,0.032 -0.0596,0.11359 -0.13234,0.1814 -0.12107,0.1128 -0.21009,0.12329 -1.04636,0.12329 h -0.91403 l -0.0749,0.44585 c -0.0491,0.29216 -0.13607,0.54227 -0.25233,0.72559 -0.0976,0.15386 -0.19161,0.27974 -0.20897,0.27974 -0.0174,0 -0.086,-0.0544 -0.15249,-0.12093 -0.0749,-0.0749 -0.20156,-0.12093 -0.33257,-0.12093 -0.13101,0 -0.2577,-0.0461 -0.33256,-0.12093 -0.0665,-0.0665 -0.15857,-0.12094 -0.20458,-0.12094 -0.046,0 -0.0984,-0.0564 -0.11644,-0.12541 -0.0181,-0.069 -0.0892,-0.14018 -0.15822,-0.15822 -0.0709,-0.0186 -0.12542,-0.0823 -0.12542,-0.14668 0,-0.071 -0.0426,-0.11388 -0.1132,-0.11388 -0.0848,0 -0.12265,-0.0591 -0.15083,-0.23526 -0.0207,-0.1294 -0.0747,-0.24951 -0.1201,-0.26692 -0.0454,-0.0174 -0.0996,-0.13873 -0.12054,-0.2696 -0.0209,-0.13087 -0.0928,-0.30756 -0.15972,-0.39263 -0.11268,-0.14325 -0.12167,-0.2438 -0.12167,-1.36021 0,-1.10239 0.01,-1.21431 0.1135,-1.30823 0.0656,-0.0594 0.12988,-0.22626 0.15235,-0.39566 0.0295,-0.22221 0.0678,-0.30051 0.15861,-0.32426 0.0855,-0.0224 0.11974,-0.0828 0.11974,-0.21132 0,-0.12916 0.0342,-0.18895 0.12093,-0.21164 0.0817,-0.0214 0.12093,-0.0825 0.12093,-0.18845 0,-0.11885 0.0307,-0.15682 0.12659,-0.15682 0.0757,0 0.1393,-0.0486 0.15822,-0.12093 0.0178,-0.0682 0.0825,-0.12093 0.14825,-0.12093 0.0641,0 0.18465,-0.068 0.26779,-0.15117 0.10933,-0.10932 0.21615,-0.15116 0.38589,-0.15116 0.19705,0 0.26425,0.0358 0.41882,0.22336 0.22016,0.26709 0.35965,0.64905 0.40975,1.122 l 0.0368,0.34768 h 1.4728 1.4728 v -0.17384 c 0,-0.14478 0.0303,-0.1799 0.1814,-0.21012 0.10639,-0.0213 0.1814,-0.0744 0.1814,-0.12849 0,-0.0621 0.0591,-0.0922 0.18139,-0.0922 0.10171,0 0.23536,-0.054 0.30423,-0.12282 0.0675,-0.0675 0.20457,-0.13917 0.30449,-0.15916 0.0999,-0.02 0.215,-0.0839 0.25573,-0.14205 0.0407,-0.0581 0.12818,-0.1164 0.19434,-0.12945 0.106,-0.0209 0.1203,-0.0727 0.1203,-0.43583 0,-0.3544 -0.0191,-0.42752 -0.13605,-0.52225 -0.0748,-0.0606 -0.13605,-0.15342 -0.13605,-0.20629 0,-0.0558 -0.0507,-0.0961 -0.12093,-0.0961 -0.0849,0 -0.1211,-0.0405 -0.12148,-0.13604 -5.3e-4,-0.0785 -0.0771,-0.19651 -0.1814,-0.27891 -0.0995,-0.0786 -0.18085,-0.1775 -0.18085,-0.21985 0,-0.0423 -0.0923,-0.12079 -0.20505,-0.17431 -0.11278,-0.0535 -0.22076,-0.13825 -0.23996,-0.18829 -0.0192,-0.05 -0.0902,-0.091 -0.15775,-0.091 -0.0825,0 -0.12283,-0.0397 -0.12283,-0.12093 0,-0.0799 -0.0403,-0.12094 -0.1188,-0.12094 -0.0653,0 -0.14674,-0.0522 -0.1809,-0.11601 -0.0342,-0.0638 -0.15074,-0.13549 -0.2591,-0.15929 -0.10836,-0.0238 -0.23257,-0.094 -0.27603,-0.15608 -0.0607,-0.0866 -0.15546,-0.11281 -0.40815,-0.11281 -0.28188,0 -0.32913,-0.0163 -0.32913,-0.11374 0,-0.10034 -0.0677,-0.11881 -0.57443,-0.15681 -0.31593,-0.0237 -0.57442,-0.0667 -0.57442,-0.0956 0,-0.1896 -1.17873,-0.20949 -1.33392,-0.0225 -0.0833,0.10042 -0.54587,0.11723 -0.63984,0.0233 -0.0437,-0.0437 -0.0867,-0.0345 -0.14042,0.0302 -0.0426,0.0513 -0.13899,0.0933 -0.21425,0.0933 -0.0753,0 -0.21479,0.0406 -0.31005,0.0903 -0.0953,0.0497 -0.27666,0.0905 -0.40312,0.0907 -0.4338,7.9e-4 -1.10091,0.19164 -1.73178,0.49567 -0.5502,0.26515 -0.69803,0.37152 -1.14885,0.82661 -0.76395,0.77119 -1.20857,1.62693 -1.4652,2.82 -0.15206,0.70695 -0.21313,2.42521 -0.11837,3.33028 0.24014,2.29343 1.24858,3.82706 2.99438,4.55384 0.6895,0.28704 1.30724,0.36576 3.21553,0.40977 1.70282,0.0393 1.70631,0.0391 1.78766,-0.0912 0.0693,-0.111 0.13778,-0.13052 0.45787,-0.13052 0.30548,0 0.38772,-0.0212 0.43675,-0.11285 0.0353,-0.0659 0.15563,-0.12815 0.28934,-0.14964 0.13547,-0.0218 0.26001,-0.0868 0.30504,-0.15924 0.0529,-0.0851 0.14058,-0.12246 0.28721,-0.12246 0.17081,0 0.21112,-0.0231 0.21112,-0.12093 0,-0.0687 0.0403,-0.12093 0.0933,-0.12093 0.0513,0 0.16669,-0.068 0.25636,-0.15117 0.0897,-0.0831 0.21347,-0.15116 0.27512,-0.15116 0.0616,0 0.12609,-0.0535 0.14319,-0.11893 0.0171,-0.0654 0.0826,-0.13527 0.14551,-0.15524 0.0629,-0.02 0.1144,-0.0743 0.1144,-0.12081 0,-0.0465 0.0513,-0.11195 0.11398,-0.1455 0.0627,-0.0335 0.13047,-0.12673 0.15064,-0.20708 0.0691,-0.27531 0.20352,-0.23622 0.45347,0.13186 0.2974,0.43794 0.92454,1.02778 1.34635,1.26625 0.39819,0.22513 1.08186,0.47307 1.46141,0.52998 l 0.2835,0.0425 v 2.04897 2.04898 H 107.54762 37.649012 Z"
         id="path923" />
      <path
         id="path914"
         style="fill:#fdc937;fill-opacity:1;stroke:none;stroke-width:0.457065;stop-color:#000000"
         d="m 37.589077,148.93132 v 31.68438 l 179.462943,-0.001 v -21.2829 l -152.071851,-0.061 -0.06305,-10.33942 z"
         sodipodi:nodetypes="ccccccc" />
      <text
         xml:space="preserve"
         style="font-size:16.9483px;line-height:1.25;font-family:'Comic Sans MS';-inkscape-font-specification:'Comic Sans MS';stroke-width:0.42371"
         x="41.103935"
         y="176.26108"
         id="text839"><tspan
           sodipodi:role="line"
           id="tspan837"
           x="41.103935"
           y="176.26108"
           style="font-style:normal;font-variant:normal;font-weight:900;font-stretch:normal;font-family:Roboto;-inkscape-font-specification:'Roboto Heavy';stroke-width:0.42371">Global KAITEKI Center</tspan></text>
      <text
         xml:space="preserve"
         style="font-size:11.4837px;line-height:1.25;font-family:'Comic Sans MS';-inkscape-font-specification:'Comic Sans MS';stroke-width:0.287093"
         x="40.480335"
         y="160.9109"
         id="text835"><tspan
           sodipodi:role="line"
           id="tspan833"
           x="40.480335"
           y="160.9109"
           style="font-style:normal;font-variant:normal;font-weight:900;font-stretch:normal;font-family:Roboto;-inkscape-font-specification:'Roboto Heavy';stroke-width:0.287093">The</tspan></text>
      <path
         style="fill:#fec837;fill-opacity:1;stroke:none;stroke-width:0.228533;stop-color:#000000"
         d="m 60.505131,155.37457 c 0,-0.0146 -0.02721,-0.0435 -0.06047,-0.064 -0.03326,-0.0206 -0.06047,-0.009 -0.06047,0.0267 0,0.0352 0.02721,0.064 0.06047,0.064 0.03326,0 0.06047,-0.012 0.06047,-0.0267 z"
         id="path1021" />
      <path
         style="fill:#fec837;fill-opacity:1;stroke:none;stroke-width:0.228533;stop-color:#000000"
         d="m 50.932355,160.8923 c -0.01932,-0.0482 -0.03363,-0.0339 -0.03653,0.0365 -0.0026,0.0637 0.01167,0.0994 0.03176,0.0794 0.02008,-0.0201 0.02225,-0.0722 0.0048,-0.11589 z"
         id="path1019" />
      <path
         style="fill:#fec837;fill-opacity:1;stroke:none;stroke-width:0.228533;stop-color:#000000"
         d="m 42.228048,161.71363 c -0.02008,-0.0201 -0.07225,-0.0223 -0.115893,-0.005 -0.04824,0.0193 -0.03391,0.0336 0.03653,0.0365 0.06374,0.003 0.09945,-0.0117 0.07936,-0.0318 z"
         id="path1013" />
      <path
         style="fill:#fec837;fill-opacity:1;stroke:none;stroke-width:0.228533;stop-color:#000000"
         d="m 59.960938,161.99202 c 0,-0.0333 -0.02721,-0.0605 -0.06047,-0.0605 -0.03326,0 -0.06047,0.0272 -0.06047,0.0605 0,0.0333 0.02721,0.0605 0.06047,0.0605 0.03326,0 0.06047,-0.0272 0.06047,-0.0605 z"
         id="path1011" />
      <path
         style="fill:#fec837;fill-opacity:1;stroke:none;stroke-width:0.228533;stop-color:#000000"
         d="m 55.190406,163.00203 c -0.07761,-0.0776 -0.156308,-0.0176 -0.09885,0.0753 0.02225,0.036 0.06817,0.0484 0.102023,0.0274 0.0413,-0.0255 0.04025,-0.0593 -0.0032,-0.10277 z"
         id="path1009" />
      <path
         style="fill:#fec837;fill-opacity:1;stroke:none;stroke-width:0.228533;stop-color:#000000"
         d="m 172.39732,163.32231 c 0.0206,-0.0332 0.009,-0.0605 -0.0267,-0.0605 -0.0352,0 -0.064,0.0272 -0.064,0.0605 0,0.0333 0.012,0.0605 0.0267,0.0605 0.0147,0 0.0435,-0.0272 0.064,-0.0605 z"
         id="path1007" />
      <path
         style="fill:#fec837;fill-opacity:1;stroke:none;stroke-width:0.228533;stop-color:#000000"
         d="m 167.22748,163.32231 c 0.0704,-0.0455 0.0527,-0.0588 -0.0791,-0.0595 -0.098,-5.3e-4 -0.15405,0.0246 -0.13248,0.0595 0.0464,0.0751 0.0955,0.0751 0.21163,0 z"
         id="path1005" />
      <path
         style="fill:#fec837;fill-opacity:1;stroke:none;stroke-width:0.228533;stop-color:#000000"
         d="m 48.835209,163.59695 c 0,-0.0147 -0.02721,-0.0435 -0.06047,-0.064 -0.03325,-0.0206 -0.06047,-0.009 -0.06047,0.0267 0,0.0352 0.02721,0.064 0.06047,0.064 0.03326,0 0.06047,-0.012 0.06047,-0.0267 z"
         id="path999" />
      <path
         style="fill:#fec837;fill-opacity:1;stroke:none;stroke-width:0.228533;stop-color:#000000"
         d="m 71.377407,164.10285 c -0.01191,-0.0357 -0.04752,-0.065 -0.07911,-0.065 -0.03159,0 -0.06719,0.0293 -0.07911,0.065 -0.01191,0.0358 0.02368,0.065 0.07911,0.065 0.05543,0 0.09103,-0.0293 0.07911,-0.065 z"
         id="path993" />
      <path
         style="fill:#fec837;fill-opacity:1;stroke:none;stroke-width:0.228533;stop-color:#000000"
         d="m 52.281767,164.10785 c 0,-0.0333 -0.02882,-0.0605 -0.06403,-0.0605 -0.03522,0 -0.04722,0.0272 -0.02666,0.0605 0.02056,0.0333 0.04937,0.0605 0.06403,0.0605 0.01466,0 0.02666,-0.0272 0.02666,-0.0605 z"
         id="path991" />
      <path
         style="fill:#fec837;fill-opacity:1;stroke:none;stroke-width:0.228533;stop-color:#000000"
         d="m 174.54386,168.58233 c 0,-0.0333 -0.0272,-0.0605 -0.0605,-0.0605 -0.0332,0 -0.0605,0.0272 -0.0605,0.0605 0,0.0333 0.0272,0.0605 0.0605,0.0605 0.0333,0 0.0605,-0.0272 0.0605,-0.0605 z"
         id="path987" />
      <path
         style="fill:#fec837;fill-opacity:1;stroke:none;stroke-width:0.228533;stop-color:#000000"
         d="m 67.64011,176.80609 c 0,-0.0332 -0.02721,-0.0605 -0.06047,-0.0605 -0.03326,0 -0.06046,0.0272 -0.06046,0.0605 0,0.0333 0.02721,0.0605 0.06046,0.0605 0.03326,0 0.06047,-0.0272 0.06047,-0.0605 z"
         id="path953" />
      <path
         style="fill:#fec837;fill-opacity:1;stroke:none;stroke-width:0.228533;stop-color:#000000"
         d="m 54.216676,177.08571 c 0,-0.0126 -0.04082,-0.0567 -0.0907,-0.0981 -0.07428,-0.0617 -0.0907,-0.0575 -0.0907,0.0228 0,0.054 0.04081,0.0981 0.0907,0.0981 0.04988,0 0.0907,-0.0103 0.0907,-0.0228 z"
         id="path941" />
      <path
         style="fill:#fec837;fill-opacity:1;stroke:none;stroke-width:0.228533;stop-color:#000000"
         d="m 55.164969,177.03671 c -0.01929,-0.0482 -0.03363,-0.0339 -0.03653,0.0365 -0.0026,0.0637 0.01167,0.0994 0.03176,0.0794 0.02008,-0.0201 0.02225,-0.0722 0.0048,-0.11589 z"
         id="path937" />
      <path
         style="fill:#fec837;fill-opacity:1;stroke:none;stroke-width:0.228533;stop-color:#000000"
         d="m 47.746822,177.10851 c 0,-0.0333 -0.06122,-0.0585 -0.136049,-0.0562 -0.129815,0.004 -0.130505,0.007 -0.01511,0.0562 0.06651,0.0286 0.127732,0.0539 0.136048,0.0562 0.0083,0.002 0.01511,-0.023 0.01511,-0.0562 z"
         id="path935" />
      <path
         style="fill:#fec837;fill-opacity:1;stroke:none;stroke-width:0.228533;stop-color:#000000"
         d="m 45.674605,177.31384 c -0.02008,-0.0201 -0.07224,-0.0223 -0.115892,-0.005 -0.04824,0.0193 -0.03391,0.0336 0.03653,0.0365 0.06374,0.003 0.09945,-0.0117 0.07936,-0.0318 z"
         id="path933" />
      <path
         style="fill:#fec837;fill-opacity:1;stroke:none;stroke-width:0.228533;stop-color:#000000"
         d="m 56.532891,177.37214 c 0.06439,-0.0644 -0.0163,-0.13978 -0.1108,-0.10352 -0.04863,0.0187 -0.07336,0.0583 -0.05496,0.0881 0.03919,0.0634 0.111099,0.0701 0.165759,0.0155 z"
         id="path929" />
      <path
         style="fill:#fec837;fill-opacity:1;stroke:none;stroke-width:0.228533;stop-color:#000000"
         d="m 49.951246,177.35454 c 0.04472,-0.0724 -0.06903,-0.14404 -0.149569,-0.0943 -0.06762,0.0418 -0.02323,0.15055 0.06145,0.15055 0.02933,0 0.06898,-0.0253 0.08812,-0.0563 z"
         id="path927" />
    </g>
  </g>
</svg>
