<?xml version="1.0" encoding="UTF-8" standalone="no"?>
<svg
   xmlns:dc="http://purl.org/dc/elements/1.1/"
   xmlns:cc="http://creativecommons.org/ns#"
   xmlns:rdf="http://www.w3.org/1999/02/22-rdf-syntax-ns#"
   xmlns:svg="http://www.w3.org/2000/svg"
   xmlns="http://www.w3.org/2000/svg"
   version="1.1"
   id="svg2"
   viewBox="0 0 450 630"
   height="630"
   width="450">
  <defs
     id="defs4" />
  <metadata
     id="metadata7">
    <rdf:RDF>
      <cc:Work
         rdf:about="">
        <dc:format>image/svg+xml</dc:format>
        <dc:type
           rdf:resource="http://purl.org/dc/dcmitype/StillImage" />
        <dc:title></dc:title>
      </cc:Work>
    </rdf:RDF>
  </metadata>
  <g
     transform="translate(6.5609174,-420.84186)"
     id="layer1">
    <path
       id="rect4140"
       d="m -6.0609174,421.34186 448.9999974,0 0,629.00004 -448.9999974,0 z"
       style="color:#000000;clip-rule:nonzero;display:inline;overflow:visible;visibility:visible;opacity:1;isolation:auto;mix-blend-mode:normal;color-interpolation:sRGB;color-interpolation-filters:linearRGB;solid-color:#000000;solid-opacity:1;fill:#000000;fill-opacity:1;fill-rule:nonzero;stroke:#000000;stroke-width:1;stroke-linecap:butt;stroke-linejoin:miter;stroke-miterlimit:4;stroke-dasharray:none;stroke-dashoffset:0;stroke-opacity:1;color-rendering:auto;image-rendering:auto;shape-rendering:auto;text-rendering:auto;enable-background:accumulate" />
    <g
       id="text4136"
       style="font-style:normal;font-weight:normal;font-size:653.42712402px;line-height:125%;font-family:sans-serif;letter-spacing:0px;word-spacing:0px;fill:#ffffff;fill-opacity:1;stroke:none;stroke-width:1px;stroke-linecap:butt;stroke-linejoin:miter;stroke-opacity:1">
      <path
         id="path4144"
         style="font-style:normal;font-variant:normal;font-weight:bold;font-stretch:normal;font-family:'Berthold Akzidenz Grotesk';-inkscape-font-specification:'Berthold Akzidenz Grotesk';fill:#ffffff;fill-opacity:1"
         d="m 140.68126,652.20319 c 0.65343,-11.76169 1.30685,-27.44394 14.3754,-46.39333 16.33567,-22.21652 37.89877,-30.71107 64.03585,-30.71107 20.90967,0 34.63164,6.53427 43.12619,14.37539 15.02883,13.06854 17.64254,36.59192 17.64254,44.43305 0,32.67135 -32.01793,55.5413 -43.12619,63.38243 -18.94939,13.06854 -39.20563,24.83023 -55.54131,41.81933 -24.83023,24.83023 -26.13708,43.77962 -27.44394,73.18384 l 82.98525,0 c 3.26713,-15.68225 5.22741,-21.56309 23.52337,-35.93849 24.83023,-19.60281 50.31389,-35.28507 74.4907,-53.58102 18.29595,-14.3754 54.88787,-41.81934 54.88787,-99.97435 0,-35.28507 -15.68225,-67.95643 -43.77961,-89.51952 -32.01793,-24.1768 -79.06469,-32.67136 -119.57717,-32.67136 -44.43304,0 -85.59895,8.49456 -118.27031,32.01793 -38.552197,26.79051 -49.660458,58.80844 -60.768719,89.51952 l 93.440079,30.05765 z m 3.92056,318.87243 103.24149,0 0,-111.08261 -103.24149,0 0,111.08261 z" />
    </g>
  </g>
</svg>
