<?xml version="1.0" encoding="UTF-8" standalone="no"?>
<svg
   xmlns:dc="http://purl.org/dc/elements/1.1/"
   xmlns:cc="http://creativecommons.org/ns#"
   xmlns:rdf="http://www.w3.org/1999/02/22-rdf-syntax-ns#"
   xmlns:svg="http://www.w3.org/2000/svg"
   xmlns="http://www.w3.org/2000/svg"
   width="500"
   height="238.52505"
   viewBox="0 0 500 238.52506"
   id="svg4153"
   version="1.1">
  <defs
     id="defs4155" />
  <metadata
     id="metadata4158">
    <rdf:RDF>
      <cc:Work
         rdf:about="">
        <dc:format>image/svg+xml</dc:format>
        <dc:type
           rdf:resource="http://purl.org/dc/dcmitype/StillImage" />
        <dc:title></dc:title>
      </cc:Work>
    </rdf:RDF>
  </metadata>
  <g
     id="text3356-5"
     style="font-style:normal;font-variant:normal;font-weight:900;font-stretch:normal;font-size:218.34507751px;line-height:125%;font-family:Lato;-inkscape-font-specification:'Lato, Heavy';text-align:start;letter-spacing:0px;word-spacing:0px;writing-mode:lr-tb;text-anchor:start;fill:#da8c1d;fill-opacity:0.50196078;stroke:none;stroke-width:1px;stroke-linecap:butt;stroke-linejoin:miter;stroke-opacity:1">
    <path
       id="path4167"
       style=""
       d="m 37.118663,159.06439 -37.11866338146973,0 0,-159.0643868795777 37.11866338146973,0 0,159.0643868795777 z" />
    <path
       id="path4169"
       style=""
       d="m 210.98958,79.477611 q 0,17.249261 -6.00449,31.878379 -5.89532,14.51995 -16.7034,25.21886 -10.80808,10.58974 -26.09224,16.59422 -15.17498,5.89532 -33.73431,5.89532 l -61.791657,0 0,-159.0643868795777 61.791657,0 q 18.55933,0 33.73431,6.0044896795777 15.28416,6.0044892 26.09224,16.5942262 10.80808,10.589736 16.7034,25.218856 6.00449,14.519948 6.00449,31.660036 z m -37.7737,0 q 0,-11.790634 -3.05683,-21.288645 -3.05683,-9.498011 -8.84298,-16.048363 -5.67697,-6.659525 -13.97408,-10.153046 -8.29711,-3.602694 -18.88685,-3.602694 l -24.67299,0 0,102.294667 24.67299,0 q 10.58974,0 18.88685,-3.49352 8.29711,-3.60269 13.97408,-10.15305 5.78615,-6.65952 8.84298,-16.15753 3.05683,-9.498012 3.05683,-21.397819 z" />
    <path
       id="path4171"
       style=""
       d="m 331.12032,3.1204223e-6 0,28.3848598795777 -65.28518,0 0,37.118663 50.00102,0 0,27.293135 -50.00102,0 0,37.882869 65.28518,0 0,28.38486 -102.40384,0 0,-159.0643868795777 102.40384,0 z" />
    <path
       id="path4173"
       style=""
       d="m 500,159.06439 -28.60321,0 q -4.80359,0 -7.96959,-2.18345 -3.05683,-2.29262 -4.25773,-5.78614 l -9.38884,-27.72983 -60.48159,0 -9.38883,27.72983 q -1.09173,3.05683 -4.25773,5.5678 -3.16601,2.40179 -7.75125,2.40179 l -28.82155,0 L 400.65299,3.1204223e-6 l 37.7737,0 L 500,159.06439 Z m -102.1855,-60.809102 43.45067,0 -14.62912,-43.559843 q -1.41924,-4.148556 -3.38435,-9.716356 -1.85593,-5.676972 -3.71186,-12.227324 -1.74676,6.659525 -3.6027,12.336497 -1.85593,5.676972 -3.49352,9.825528 L 397.8145,98.255288 Z" />
  </g>
  <g
     id="text4169"
     style="font-style:normal;font-variant:normal;font-weight:900;font-stretch:normal;font-size:218.34507751px;line-height:125%;font-family:Lato;-inkscape-font-specification:'Lato, Heavy';text-align:start;letter-spacing:0px;word-spacing:0px;writing-mode:lr-tb;text-anchor:start;fill:#2499d3;fill-opacity:0.75294118;stroke:none;stroke-width:1px;stroke-linecap:butt;stroke-linejoin:miter;stroke-opacity:1">
    <path
       id="path4160"
       style="letter-spacing:7.6282239px;fill:#2499d3;fill-opacity:0.75294118"
       d="m 80.593438,209.04847 58.953172,0 0,29.47658 -95.85349,0 0,-159.064384 36.900318,0 0,129.587804 z" />
    <path
       id="path4162"
       style="letter-spacing:7.6282239px;fill:#2499d3;fill-opacity:0.75294118"
       d="m 312.7964,238.52505 -28.60321,0 q -4.80359,0 -7.96959,-2.18345 -3.05683,-2.29262 -4.25773,-5.78614 l -9.38884,-27.72983 -60.48159,0 -9.38884,27.72983 q -1.09172,3.05683 -4.25772,5.5678 -3.16601,2.40179 -7.75125,2.40179 l -28.82155,0 61.57331,-159.064384 37.7737,0 61.57331,159.064384 z m -102.1855,-60.8091 43.45067,0 -14.62912,-43.55984 q -1.41924,-4.14856 -3.38435,-9.71636 -1.85593,-5.67697 -3.71186,-12.22732 -1.74676,6.65952 -3.6027,12.33649 -1.85593,5.67698 -3.49352,9.82553 l -14.62912,43.3415 z" />
    <path
       id="path4164"
       style="letter-spacing:7.6282239px;fill:#2499d3;fill-opacity:0.75294118"
       d="m 333.16028,238.52505 0,-159.064384 58.51648,0 q 16.48506,0 28.05735,3.056831 11.57228,3.056831 18.88685,8.624631 7.31456,5.567799 10.58973,13.537392 3.38435,7.9696 3.38435,17.79513 0,5.34945 -1.52842,10.37139 -1.52841,4.91276 -4.80359,9.27966 -3.27517,4.3669 -8.40628,7.9696 -5.13111,3.49352 -12.3365,6.11366 15.72085,3.82104 23.25375,12.44567 7.53291,8.51546 7.53291,21.94368 0,10.15305 -3.93022,18.88685 -3.93021,8.7338 -11.57228,15.28416 -7.53291,6.44117 -18.66851,10.15304 -11.1356,3.60269 -25.4372,3.60269 l -63.53842,0 z m 36.90032,-67.46862 0,39.62963 25.98306,0 q 7.31457,0 11.89981,-1.85594 4.69442,-1.85593 7.31456,-4.80359 2.62014,-2.94766 3.6027,-6.65952 0.98255,-3.71187 0.98255,-7.53291 0,-4.3669 -1.2009,-7.86042 -1.09172,-3.49352 -3.93021,-5.89532 -2.72931,-2.40179 -7.31456,-3.71186 -4.58525,-1.31007 -11.57229,-1.31007 l -25.76472,0 z m 0,-24.673 19.21437,0 q 6.11366,0 11.02642,-0.87338 4.91277,-0.87338 8.29712,-3.05683 3.49352,-2.18345 5.24028,-6.00449 1.85593,-3.82104 1.85593,-9.60718 0,-5.67697 -1.41924,-9.38884 -1.41924,-3.82104 -4.3669,-6.11366 -2.94766,-2.29263 -7.53291,-3.27518 -4.47607,-0.98255 -10.69891,-0.98255 l -21.61616,0 0,39.30211 z" />
  </g>
  <g
     id="text3356-5-1"
     style="font-style:normal;font-variant:normal;font-weight:900;font-stretch:normal;font-size:218.34507751px;line-height:125%;font-family:Lato;-inkscape-font-specification:'Lato, Heavy';text-align:start;letter-spacing:0px;word-spacing:0px;writing-mode:lr-tb;text-anchor:start;fill:#da8c1d;fill-opacity:0.50196078;stroke:none;stroke-width:1px;stroke-linecap:butt;stroke-linejoin:miter;stroke-opacity:1">
    <path
       id="path4167-4"
       d="m 37.118663,159.06439 -37.11866338146973,0 0,-159.0643868795777 37.11866338146973,0 0,159.0643868795777 z" />
    <path
       id="path4169-7"
       d="m 210.98958,79.477611 q 0,17.249261 -6.00449,31.878379 -5.89532,14.51995 -16.7034,25.21886 -10.80808,10.58974 -26.09224,16.59422 -15.17498,5.89532 -33.73431,5.89532 l -61.791657,0 0,-159.0643868795777 61.791657,0 q 18.55933,0 33.73431,6.0044896795777 15.28416,6.0044892 26.09224,16.5942262 10.80808,10.589736 16.7034,25.218856 6.00449,14.519948 6.00449,31.660036 z m -37.7737,0 q 0,-11.790634 -3.05683,-21.288645 -3.05683,-9.498011 -8.84298,-16.048363 -5.67697,-6.659525 -13.97408,-10.153046 -8.29711,-3.602694 -18.88685,-3.602694 l -24.67299,0 0,102.294667 24.67299,0 q 10.58974,0 18.88685,-3.49352 8.29711,-3.60269 13.97408,-10.15305 5.78615,-6.65952 8.84298,-16.15753 3.05683,-9.498012 3.05683,-21.397819 z" />
    <path
       id="path4171-9"
       d="m 331.12032,3.1204223e-6 0,28.3848598795777 -65.28518,0 0,37.118663 50.00102,0 0,27.293135 -50.00102,0 0,37.882869 65.28518,0 0,28.38486 -102.40384,0 0,-159.0643868795777 102.40384,0 z" />
    <path
       id="path4173-5"
       d="m 500,159.06439 -28.60321,0 q -4.80359,0 -7.96959,-2.18345 -3.05683,-2.29262 -4.25773,-5.78614 l -9.38884,-27.72983 -60.48159,0 -9.38883,27.72983 q -1.09173,3.05683 -4.25773,5.5678 -3.16601,2.40179 -7.75125,2.40179 l -28.82155,0 L 400.65299,3.1204223e-6 l 37.7737,0 L 500,159.06439 Z m -102.1855,-60.809102 43.45067,0 -14.62912,-43.559843 q -1.41924,-4.148556 -3.38435,-9.716356 -1.85593,-5.676972 -3.71186,-12.227324 -1.74676,6.659525 -3.6027,12.336497 -1.85593,5.676972 -3.49352,9.825528 L 397.8145,98.255288 Z" />
  </g>
</svg>
